# xmcd CD Database Entry
#
# Track frame offsets:
# 150
# 16445
# 33350
# 48815
# 59877
# 76620
# 93567
# 110462
# 128055
# 148192
# 165992
# 183447
#
# Disc length: 2853 seconds
#
# Revision: 1
# Processed by: cddbd v1.4PL0 Copyright (c) Steve Scherf et al.
# Submitted via: tcd 2.0b
#
DISCID=990b230c
DTITLE=Ricardo Arjona - Animal Nocturno
DYEAR=1900
DGENRE=
TTITLE0=Libre
TTITLE1=Mi primera vez
TTITLE2=Mujeres
TTITLE3=Tiempo en una botella
TTITLE4=Como olvidarte
TTITLE5=Solo
TTITLE6=Baila conmigo
TTITLE7=Quien diria
TTITLE8=Te encontraré
TTITLE9=Así de ilogico
TTITLE10=Animal Nocturno
TTITLE11=Jesus es verbo, no sustantivo
EXTD=
EXTT0=
EXTT1=
EXTT2=
EXTT3=
EXTT4=
EXTT5=
EXTT6=
EXTT7=
EXTT8=
EXTT9=
EXTT10=
EXTT11=
PLAYORDER=
